#!OML:ASF F:\VICON\USERDATA\INSTALL\Justin_Nancy\Justin_Nancy.ASF
:FULLY-SPECIFIED
:DEGREES
146
root -2.03771 17.294 8.70843 -3.89562 -59.5265 13.5484
lowerback 9.97845 3.20405 2.29683
upperback 2.12217 4.46904 0.706313
thorax -3.25249 2.18043 -1.1115
lowerneck -10.1223 -12.4928 -14.6256
upperneck 10.7494 -16.5707 13.034
head 7.27617 -7.77095 4.71251
rclavicle -4.17448e-014 1.59028e-014
rhumerus -34.0325 23.6113 -97.3671
rradius 110.206
rwrist -6.12266
rhand -12.648 22.6341
rfingers 7.12502
rthumb 13.4325 -6.91284
lclavicle -4.17448e-014 1.59028e-014
lhumerus -62.619 -0.670973 91.8866
lradius 105.49
lwrist 19.2811
lhand -19.5344 4.35074
lfingers 7.12502
lthumb 6.78931 34.2219
rfemur 1.96713 5.30103 29.656
rtibia 45.0065
rfoot 20.6128 9.50078
rtoes 16.7103
lfemur -35.0911 -11.4527 -13.1753
ltibia 32.0357
lfoot -1.12886 -12.0744
ltoes -9.22725
147
root -2.34283 17.1886 8.8531 -4.21911 -60.776 13.6979
lowerback 9.63997 3.25704 2.04871
upperback 2.44014 4.48794 0.527047
thorax -2.73948 2.19988 -1.12639
lowerneck -10.7504 -12.2865 -13.8356
upperneck 10.9622 -16.2602 12.4954
head 7.29067 -7.59984 4.43767
rclavicle -2.8625e-014 -3.18055e-015
rhumerus -34.2539 24.1423 -97.9364
rradius 108.978
rwrist -6.20652
rhand -12.2699 22.5054
rfingers 7.12502
rthumb 13.7969 -7.01704
lclavicle -2.8625e-014 -3.18055e-015
lhumerus -61.2071 -0.781487 92.325
lradius 106
lwrist 19.4995
lhand -18.7466 5.34914
lfingers 7.12502
lthumb 7.54976 35.1944
rfemur 0.633784 5.063 29.0983
rtibia 49.1337
rfoot 17.933 8.88122
rtoes 13.805
lfemur -34.3028 -11.6416 -13.0013
ltibia 32.9969
lfoot -1.55799 -12.047
ltoes -3.17986
148
root -2.65737 17.1155 8.98684 -5.13184 -62.1598 14.222
lowerback 9.73988 3.3345 1.5271
upperback 2.6193 4.5306 0.409983
thorax -2.63859 2.22376 -0.961785
lowerneck -10.8851 -11.9729 -13.3922
upperneck 11.1299 -15.8403 12.1308
head 7.24129 -7.40077 4.3122
rclavicle 8.78628e-014 -2.06736e-014
rhumerus -34.9263 24.6671 -98.5088
rradius 107.929
rwrist -6.3697
rhand -11.9022 22.2475
rfingers 7.12502
rthumb 14.1513 -7.25053
lclavicle 8.78628e-014 -2.06736e-014
lhumerus -60.0465 -0.997522 92.9382
lradius 106.421
lwrist 19.9178
lhand -18.7526 5.2049
lfingers 7.12502
lthumb 7.54391 35.0504
rfemur -0.642409 4.99222 28.4108
rtibia 53.3996
rfoot 15.5193 7.97705
rtoes 11.0383
lfemur -33.0863 -12.0647 -12.837
ltibia 34.3836
lfoot -3.48429 -10.9464
ltoes -0.070845
149
root -2.96748 17.0571 9.10565 -5.73898 -63.1332 14.5879
lowerback 9.9572 3.28459 1.01341
upperback 2.59207 4.41607 0.40437
thorax -2.82812 2.16601 -0.684434
lowerneck -10.7119 -11.6906 -13.7012
upperneck 11.3183 -15.4724 12.2988
head 7.26404 -7.23225 4.47438
rclavicle 1.21656e-013 2.70347e-014
rhumerus -35.9351 25.0458 -99.0038
rradius 106.892
rwrist -6.5014
rhand -12.0249 22.5368
rfingers 7.12502
rthumb 14.033 -6.96947
lclavicle 1.21656e-013 2.70347e-014
lhumerus -59.0282 -1.28165 93.7811
lradius 106.766
lwrist 20.5902
lhand -19.0528 4.6775
lfingers 7.12502
lthumb 7.2542 34.5332
rfemur -2.33251 4.46392 27.6793
rtibia 57.725
rfoot 13.8655 6.98612
rtoes 10.5473
lfemur -32.1588 -13.138 -12.1037
ltibia 35.9688
lfoot -4.25645 -10.9518
ltoes 15.8167
150
root -3.24739 16.9282 9.21908 -6.86294 -63.8613 15.6352
lowerback 10.2112 3.194 0.238707
upperback 2.54673 4.215 0.291451
thorax -3.06594 2.06765 -0.363371
lowerneck -10.7425 -11.4644 -13.8583
upperneck 11.5562 -15.1593 12.3117
head 7.31757 -7.08561 4.5455
rclavicle 1.74931e-014 -3.65764e-014
rhumerus -36.6368 25.1196 -99.4913
rradius 105.678
rwrist -6.30123
rhand -12.116 23.4318
rfingers 7.12502
rthumb 13.9452 -6.08053
lclavicle 1.74931e-014 -3.65764e-014
lhumerus -57.8355 -1.8164 94.4637
lradius 107.159
lwrist 21.3443
lhand -18.3229 5.29405
lfingers 7.12502
lthumb 7.95869 35.1242
rfemur -4.52889 3.40988 26.4275
rtibia 62.1745
rfoot 12.8396 5.92101
rtoes 8.60763
lfemur -31.2684 -11.3535 -13.4916
ltibia 37.7549
lfoot -8.76115 -11.7947
ltoes -2.83907
151
root -3.54004 16.8231 9.34941 -8.08539 -64.7505 16.7099
lowerback 10.396 3.05486 -0.328211
upperback 2.53482 3.96415 0.140759
thorax -3.20902 1.945 -0.182581
lowerneck -11.1196 -11.19 -13.5915
upperneck 11.9936 -14.7591 11.9352
head 7.41706 -6.89116 4.42187
rclavicle -1.19271e-015 1.59028e-014
rhumerus -37.4211 25.1541 -100.193
rradius 104.616
rwrist -5.93742
rhand -12.0563 23.8842
rfingers 7.12502
rthumb 14.0028 -5.62421
lclavicle -1.19271e-015 1.59028e-014
lhumerus -56.4537 -2.45299 95.0199
lradius 107.468
lwrist 22.5443
lhand -18.043 6.3069
lfingers 7.12502
lthumb 8.22885 36.1267
rfemur -6.62781 2.39971 25.1053
rtibia 66.3631
rfoot 11.8618 4.96092
rtoes 7.52297
lfemur -30.3785 -10.7593 -14.2312
ltibia 39.3793
lfoot -12.0872 -11.1583
ltoes -10.0535
152
root -3.84314 16.7508 9.48171 -9.78118 -65.7083 18.2577
lowerback 10.5856 2.7219 -1.12723
upperback 2.55217 3.43097 0.0864165
thorax -3.33757 1.6843 0.268025
lowerneck -12.0078 -10.6978 -13.2655
upperneck 12.6961 -13.9653 11.2068
head 7.61106 -6.51216 4.2073
rclavicle 2.34566e-014 9.54166e-015
rhumerus -37.9919 25.6032 -100.997
rradius 103.549
rwrist -5.72683
rhand -11.2239 23.7885
rfingers 7.12502
rthumb 14.8048 -5.66269
lclavicle 2.34566e-014 9.54166e-015
lhumerus -55.0311 -2.77703 95.7579
lradius 108.081
lwrist 24.9395
lhand -20.0263 6.56114
lfingers 7.12502
lthumb 6.31445 36.447
rfemur -8.72415 1.44079 23.5313
rtibia 70.2816
rfoot 10.7292 4.37902
rtoes 7.31066
lfemur -29.2069 -10.8502 -14.9021
ltibia 40.6277
lfoot -14.6113 -9.66606
ltoes -12.9827
153
root -4.14348 16.6837 9.62399 -11.7649 -66.7656 20.0947
lowerback 10.8575 2.4159 -1.89259
upperback 2.52001 2.93194 0.0375106
thorax -3.54841 1.44216 0.700955
lowerneck -13.205 -10.2157 -13.0171
upperneck 13.7998 -13.1517 10.3988
head 7.99895 -6.12661 3.96676
rclavicle -2.94201e-014 -3.18055e-015
rhumerus -38.1009 25.5543 -101.734
rradius 102.415
rwrist -5.44299
rhand -9.90356 23.3698
rfingers 7.12502
rthumb 16.0765 -5.9833
lclavicle -2.94201e-014 -3.18055e-015
lhumerus -53.5742 -3.51719 96.9223
lradius 108.94
lwrist 28.8241
lhand -25.1373 6.14751
lfingers 7.12502
lthumb 1.37895 36.1228
rfemur -10.9358 0.324978 21.7367
rtibia 74.0295
rfoot 9.44487 4.23061
rtoes 6.72791
lfemur -27.577 -10.8428 -15.802
ltibia 41.2987
lfoot -17.0504 -7.58304
ltoes -16.582
154
root -4.45155 16.6101 9.7739 -13.596 -68.2359 21.7025
lowerback 10.9404 2.60123 -1.99207
upperback 2.56684 3.14878 -0.255437
thorax -3.54003 1.54756 0.420166
lowerneck -13.8594 -10.1623 -12.6781
upperneck 14.5157 -13.0728 10.0733
head 8.2933 -6.07194 3.7883
rclavicle -3.02153e-014 -1.43125e-014
rhumerus -39.2313 24.1083 -102.221
rradius 102.124
rwrist -5.4428
rhand -9.46594 23.663
rfingers 7.12502
rthumb 16.4979 -5.65558
lclavicle -3.02153e-014 -1.43125e-014
lhumerus -51.7902 -4.45217 96.5672
lradius 108.691
lwrist 25.9816
lhand -22.9534 6.47995
lfingers 7.12502
lthumb 3.48811 36.4312
rfemur -13.2061 -0.384943 20.2901
rtibia 77.5485
rfoot 7.64813 4.77814
rtoes 7.21086
lfemur -25.6501 -10.3661 -16.5054
ltibia 41.7159
lfoot -19.1789 -5.66475
ltoes -17.5513
155
root -4.73228 16.5097 9.82142 -20.7965 -67.8982 29.3343
lowerback 11.3675 2.77616 -5.63502
upperback 2.54799 2.8934 -1.00315
thorax -3.92561 1.44855 1.69674
lowerneck -14.2241 -10.1977 -12.6421
upperneck 14.6535 -13.1351 10.2583
head 8.42243 -6.06979 3.81965
rclavicle -4.85035e-014 2.62396e-014
rhumerus -40.8289 23.0124 -102.592
rradius 102.545
rwrist -6.34194
rhand -10.0503 23.7792
rfingers 7.12502
rthumb 15.9352 -5.58526
lclavicle -4.85035e-014 2.62396e-014
lhumerus -49.7747 -5.7035 96.2916
lradius 108.399
lwrist 24.1361
lhand -20.0032 7.29654
lfingers 7.12502
lthumb 6.33673 37.1818
rfemur -16.0989 -1.67228 16.612
rtibia 81.1885
rfoot 5.77215 4.94204
rtoes 8.37881
lfemur -24.1315 -9.98137 -19.6786
ltibia 41.7488
lfoot -20.6778 -4.98945
ltoes -15.6818
